<?xml version="1.0" encoding="UTF-8" standalone="no"?>
<svg
   width="64"
   height="64"
   fill="currentColor"
   class="bi bi-shuffle"
   viewBox="0 0 64 64"
   version="1.1"
   id="svg6"
   sodipodi:docname="icon.svg"
   inkscape:version="1.1 (c68e22c387, 2021-05-23)"
   xmlns:inkscape="http://www.inkscape.org/namespaces/inkscape"
   xmlns:sodipodi="http://sodipodi.sourceforge.net/DTD/sodipodi-0.dtd"
   xmlns="http://www.w3.org/2000/svg"
   xmlns:svg="http://www.w3.org/2000/svg">
  <defs
     id="defs10" />
  <sodipodi:namedview
     id="namedview8"
     pagecolor="#ffffff"
     bordercolor="#666666"
     borderopacity="1.0"
     inkscape:pageshadow="2"
     inkscape:pageopacity="0.0"
     inkscape:pagecheckerboard="0"
     showgrid="false"
     inkscape:zoom="8.9714175"
     inkscape:cx="7.1894993"
     inkscape:cy="29.148125"
     inkscape:window-width="1920"
     inkscape:window-height="1001"
     inkscape:window-x="-9"
     inkscape:window-y="-9"
     inkscape:window-maximized="1"
     inkscape:current-layer="svg6" />
  <path
     fill-rule="evenodd"
     d="m 61.534374,44.215646 a 0.90717908,1.1970818 0 0 1 -0.907182,1.197075 h -0.907175 c -3.995216,0 -6.943547,-2.968756 -8.84318,-5.789083 -0.889035,-1.321576 -1.569423,-2.638365 -2.042968,-3.667857 -0.471731,1.029492 -1.153931,2.346281 -2.04297,3.667857 -1.899629,2.820327 -4.84796,5.789083 -8.843185,5.789083 v -2.394159 c 3.262222,0 5.756965,-2.418103 7.486045,-4.984648 a 17.461383,23.041428 0 0 0 2.391326,-4.592005 17.461383,23.041428 0 0 0 -2.389509,-4.592007 c -1.732714,-2.566543 -4.229268,-4.984653 -7.487862,-4.984653 v -2.394163 c 3.995225,0 6.943556,2.968764 8.843185,5.789093 a 19.223125,25.366161 0 0 1 2.04297,3.667859 c 0.471733,-1.029492 1.153933,-2.346283 2.042968,-3.667859 1.899633,-2.820329 4.847964,-5.789093 8.84318,-5.789093 h 0.907175 a 0.90717959,1.1970825 0 0 1 0,2.394163 h -0.907175 c -3.262216,0 -5.756956,2.41811 -7.486043,4.984653 a 17.461383,23.041428 0 0 0 -2.391321,4.592007 17.461383,23.041428 0 0 0 2.389509,4.592005 c 1.732709,2.566545 4.229268,4.984648 7.487855,4.984648 h 0.907175 a 0.90717908,1.1970818 0 0 1 0.907182,1.197084 z"
     id="path2"
     style="stroke-width:2.08419" />
  <path
     d="m 37.96544,39.508734 v 9.413856 a 0.45358954,0.59854089 0 0 1 -0.743888,0.45966 l -4.28189,-4.706929 c -0.217717,-0.239394 -0.217717,-0.679938 0,-0.919357 l 4.28189,-4.706929 a 0.45358954,0.59854089 0 0 1 0.743888,0.45966 z m 0,-21.547462 v 9.413844 a 0.45358954,0.59854089 0 0 1 -0.743888,0.45966 l -4.28189,-4.706922 c -0.217717,-0.239393 -0.217717,-0.679944 0,-0.919358 l 4.28189,-4.706922 a 0.45358954,0.59854089 0 0 1 0.743888,0.459662 z"
     id="path4"
     style="stroke-width:2.08419" />
  <text
     xml:space="preserve"
     style="font-size:9.63688px;line-height:1;font-family:sans-serif;stroke-width:4.13009"
     x="2.2104971"
     y="13.946565"
     id="text41289"
     transform="scale(1.0060886,0.99394825)"><tspan
       sodipodi:role="line"
       id="tspan41287"
       x="2.2104971"
       y="13.946565"
       style="font-size:9.63688px;fill:#6654a8;fill-opacity:1;stroke-width:4.13009">royal</tspan></text>
  <text
     xml:space="preserve"
     style="font-size:9.63688px;line-height:1;font-family:sans-serif;fill:#427e4a;fill-opacity:1;stroke-width:4.13009"
     x="2.1058767"
     y="26.927711"
     id="text41289-2"
     transform="scale(1.0060886,0.99394825)"><tspan
       sodipodi:role="line"
       id="tspan41287-6"
       x="2.1058767"
       y="26.927711"
       style="font-size:9.63688px;fill:#427e4a;fill-opacity:1;stroke-width:4.13009">awful</tspan></text>
  <text
     xml:space="preserve"
     style="font-size:8.28794px;line-height:1;font-family:sans-serif;fill:#427e4a;fill-opacity:1;stroke-width:3.55199"
     x="2.3696973"
     y="32.607582"
     id="text41289-2-3"
     transform="scale(0.79646484,1.2555482)"><tspan
       sodipodi:role="line"
       id="tspan41287-6-0"
       x="2.3696973"
       y="32.607582"
       style="font-size:8.28794px;fill:#e01985;fill-opacity:1;stroke-width:3.55199">opposite</tspan></text>
  <text
     xml:space="preserve"
     style="font-size:6.9615px;line-height:1;font-family:sans-serif;fill:#0303c5;fill-opacity:1;stroke-width:2.98347"
     x="3.4559302"
     y="37.756035"
     id="text41289-2-3-3"
     transform="scale(0.66899017,1.4947903)"><tspan
       sodipodi:role="line"
       id="tspan41287-6-0-2"
       x="3.4559302"
       y="37.756035"
       style="font-size:6.9615px;fill:#0303c5;fill-opacity:1;stroke-width:2.98347">countenance</tspan></text>
</svg>
